<?xml version="1.0" encoding="utf-8"?>
<!-- Generator: Adobe Illustrator 25.0.0, SVG Export Plug-In . SVG Version: 6.00 Build 0)  -->
<svg version="1.1" id="Capa_1" xmlns="http://www.w3.org/2000/svg" xmlns:xlink="http://www.w3.org/1999/xlink" x="0px" y="0px"
	 viewBox="0 0 200 200" style="enable-background:new 0 0 200 200;" xml:space="preserve">
<style type="text/css">
	.st0{fill:#4EC2EB;}
	.st1{fill:#7084C1;}
	.st2{fill:url(#SVGID_1_);}
	.st3{fill:#020203;}
</style>
<linearGradient id="SVGID_1_" gradientUnits="userSpaceOnUse" x1="26.2704" y1="169.5161" x2="140.9716" y2="54.8149">
	<stop  offset="0" style="stop-color:#4EC2EB"/>
	<stop  offset="1" style="stop-color:#7084C1"/>
</linearGradient>
<circle class="st2" cx="83.62" cy="112.17" r="81.11"/>
<g>
	<g>
		<g>
			<path class="st3" d="M147.53,28.27H53.56c-11.12,0.01-20.12,9.02-20.14,20.14v77.19c0.01,11.12,9.02,20.12,20.14,20.14h93.97
				c11.12-0.01,20.12-9.02,20.14-20.14V48.4C167.65,37.29,158.64,28.28,147.53,28.27z M160.95,125.59c0,7.41-6.01,13.42-13.42,13.42
				H53.56c-7.41,0-13.42-6.01-13.42-13.42V48.4c0-7.41,6.01-13.42,13.42-13.42h93.97c7.41,0,13.42,6.01,13.42,13.42L160.95,125.59
				L160.95,125.59z"/>
		</g>
	</g>
	<g>
		<g>
			<rect x="36.78" y="48.4" class="st3" width="127.53" height="6.71"/>
		</g>
	</g>
	<g>
		<g>
			<rect x="50.2" y="38.33" class="st3" width="16.78" height="6.71"/>
		</g>
	</g>
	<g>
		<g>
			<rect x="73.7" y="38.33" class="st3" width="6.71" height="6.71"/>
		</g>
	</g>
	<g>
		<g>
			<rect x="87.12" y="38.33" class="st3" width="6.71" height="6.71"/>
		</g>
	</g>
	<g>
		<g>
			<path class="st3" d="M174.37,45.05h-3.36v6.71h3.36c7.41,0,13.42,6.01,13.42,13.42v83.9c0,7.41-6.01,13.42-13.42,13.42H80.41
				c-7.41,0-13.42-6.01-13.42-13.42h-6.71c0.01,11.12,9.02,20.12,20.14,20.14h93.97c11.12-0.01,20.12-9.02,20.14-20.14v-83.9
				C194.5,54.07,185.49,45.06,174.37,45.05z"/>
		</g>
	</g>
	<g>
		<g>
			<rect x="171.02" y="65.18" class="st3" width="20.14" height="6.71"/>
		</g>
	</g>
	<g>
		<g>
			<path class="st3" d="M65.64,67.87l-4.03-5.37L48.19,72.57c-0.25,0.19-0.48,0.42-0.67,0.67c-1.11,1.48-0.81,3.59,0.67,4.7
				L61.61,88l4.03-5.37l-9.84-7.38L65.64,67.87z"/>
		</g>
	</g>
	<g>
		<g>
			<path class="st3" d="M89.13,72.57L75.71,62.5l-4.03,5.37l9.84,7.38l-9.84,7.38L75.71,88l13.42-10.07
				c0.25-0.19,0.48-0.42,0.67-0.67C90.92,75.78,90.62,73.68,89.13,72.57z"/>
		</g>
	</g>
	<g>
		<g>
			<path class="st3" d="M129.4,98.07l-4.03-5.37l-13.42,10.07c-0.25,0.19-0.48,0.42-0.67,0.67c-1.11,1.48-0.81,3.59,0.67,4.7
				l13.42,10.07l4.03-5.37l-9.84-7.38L129.4,98.07z"/>
		</g>
	</g>
	<g>
		<g>
			<path class="st3" d="M152.9,102.77L139.47,92.7l-4.03,5.37l9.84,7.38l-9.84,7.38l4.03,5.37l13.42-10.07
				c0.25-0.19,0.48-0.42,0.67-0.67C154.68,105.98,154.38,103.88,152.9,102.77z"/>
		</g>
	</g>
	<g>
		<g>
			<rect x="97.19" y="65.18" class="st3" width="20.14" height="6.71"/>
		</g>
	</g>
	<g>
		<g>
			<rect x="124.04" y="65.18" class="st3" width="6.71" height="6.71"/>
		</g>
	</g>
	<g>
		<g>
			<rect x="137.46" y="65.18" class="st3" width="6.71" height="6.71"/>
		</g>
	</g>
	<g>
		<g>
			<rect x="124.04" y="78.61" class="st3" width="20.14" height="6.71"/>
		</g>
	</g>
	<g>
		<g>
			<rect x="110.61" y="78.61" class="st3" width="6.71" height="6.71"/>
		</g>
	</g>
	<g>
		<g>
			<rect x="97.19" y="78.61" class="st3" width="6.71" height="6.71"/>
		</g>
	</g>
	<g>
		<g>
			<rect x="56.92" y="95.39" class="st3" width="20.14" height="6.71"/>
		</g>
	</g>
	<g>
		<g>
			<rect x="83.76" y="95.39" class="st3" width="6.71" height="6.71"/>
		</g>
	</g>
	<g>
		<g>
			<rect x="97.19" y="95.39" class="st3" width="6.71" height="6.71"/>
		</g>
	</g>
	<g>
		<g>
			<rect x="83.76" y="108.81" class="st3" width="20.14" height="6.71"/>
		</g>
	</g>
	<g>
		<g>
			<rect x="70.34" y="108.81" class="st3" width="6.71" height="6.71"/>
		</g>
	</g>
	<g>
		<g>
			<rect x="56.92" y="108.81" class="st3" width="6.71" height="6.71"/>
		</g>
	</g>
	<g>
		<g>
			<rect x="56.92" y="122.23" class="st3" width="83.9" height="6.71"/>
		</g>
	</g>
	<g>
		<g>
			<rect x="174.37" y="81.96" class="st3" width="6.71" height="6.71"/>
		</g>
	</g>
	<g>
		<g>
			<rect x="174.37" y="95.39" class="st3" width="6.71" height="6.71"/>
		</g>
	</g>
	<g>
		<g>
			<rect x="174.37" y="108.81" class="st3" width="6.71" height="6.71"/>
		</g>
	</g>
</g>
</svg>
