<svg id="Capa_1" enable-background="new 0 0 497 497" height="512" viewBox="0 0 497 497" width="512" xmlns="http://www.w3.org/2000/svg"><g><g><path d="m486.794 464.786h-476.588c-5.637 0-10.206-4.569-10.206-10.206v-379.147c0-5.637 4.569-10.206 10.206-10.206h476.587c5.637 0 10.206 4.569 10.206 10.206v379.147c.001 5.637-4.568 10.206-10.205 10.206z" fill="#f1f1f2"/></g><g><path d="m486.794 65.227h-30c5.637 0 10.206 4.569 10.206 10.206v379.147c0 5.637-4.569 10.206-10.206 10.206h30c5.637 0 10.206-4.569 10.206-10.206v-379.147c0-5.637-4.569-10.206-10.206-10.206z" fill="#e3e5ec"/></g><g><path d="m51.669 96.122c-8.989 0-16.277-7.287-16.277-16.277v-31.355c0-8.989 7.287-16.277 16.277-16.277 8.99 0 16.277 7.287 16.277 16.277v31.355c0 8.99-7.287 16.277-16.277 16.277z" fill="#c8c3ca"/></g><g><path d="m150.085 96.122c-8.989 0-16.277-7.287-16.277-16.277v-31.355c0-8.989 7.287-16.277 16.277-16.277 8.989 0 16.277 7.287 16.277 16.277v31.355c-.001 8.99-7.288 16.277-16.277 16.277z" fill="#a29aa5"/></g><g><path d="m248.5 96.122c-8.99 0-16.277-7.287-16.277-16.277v-31.355c0-8.989 7.287-16.277 16.277-16.277 8.989 0 16.277 7.287 16.277 16.277v31.355c0 8.99-7.288 16.277-16.277 16.277z" fill="#c8c3ca"/></g><g><path d="m346.915 96.122c-8.99 0-16.277-7.287-16.277-16.277v-31.355c0-8.989 7.287-16.277 16.277-16.277 8.989 0 16.277 7.287 16.277 16.277v31.355c0 8.99-7.287 16.277-16.277 16.277z" fill="#a29aa5"/></g><g><path d="m445.33 96.122c-8.99 0-16.277-7.287-16.277-16.277v-31.355c0-8.989 7.287-16.277 16.277-16.277 8.989 0 16.277 7.287 16.277 16.277v31.355c0 8.99-7.287 16.277-16.277 16.277z" fill="#c8c3ca"/></g><g><path d="m312.914 415.29h-260.619c-4.931 0-8.929-3.998-8.929-8.929v-218.425c0-4.931 3.998-8.929 8.929-8.929h260.619c4.931 0 8.929 3.998 8.929 8.929v218.425c0 4.931-3.998 8.929-8.929 8.929z" fill="#fff3c9"/></g><g><path d="m225.988 179.008h-173.693c-4.931 0-8.929 3.997-8.929 8.929v218.425c0 4.931 3.998 8.929 8.929 8.929h173.694l29.599-118.141z" fill="#ffe37b"/></g><g><path d="m312.914 179.008h-86.925v236.282h86.925c4.931 0 8.929-3.997 8.929-8.929v-218.425c-.001-4.931-3.998-8.928-8.929-8.928z" fill="#b2e5fb"/></g><g><path d="m445.634 336.194h-72.22c-4.418 0-8-3.582-8-8v-139.187c0-4.418 3.582-8 8-8h72.22c4.418 0 8 3.582 8 8v139.186c0 4.419-3.582 8.001-8 8.001z" fill="#feeeb9"/></g><g><path d="m312.914 179.008h-30c4.931 0 8.929 3.997 8.929 8.929v218.425c0 4.931-3.998 8.929-8.929 8.929h30c4.931 0 8.929-3.997 8.929-8.929v-218.426c-.001-4.931-3.998-8.928-8.929-8.928z" fill="#91dafa"/></g><g><path d="m445.634 181.008h-30c4.418 0 8 3.582 8 8v139.186c0 4.418-3.582 8-8 8h30c4.418 0 8-3.582 8-8v-139.186c0-4.419-3.582-8-8-8z" fill="#ffe37b"/></g><g><path d="m453.634 391.952h-88.22c-4.143 0-7.5-3.358-7.5-7.5s3.357-7.5 7.5-7.5h88.22c4.143 0 7.5 3.358 7.5 7.5s-3.357 7.5-7.5 7.5z" fill="#b1abb4"/></g><g><path d="m453.634 422.79h-88.22c-4.143 0-7.5-3.358-7.5-7.5s3.357-7.5 7.5-7.5h88.22c4.143 0 7.5 3.358 7.5 7.5s-3.357 7.5-7.5 7.5z" fill="#b1abb4"/></g><g><path d="m133.808 149.008h-90.442c-4.142 0-7.5-3.358-7.5-7.5s3.358-7.5 7.5-7.5h90.442c4.142 0 7.5 3.358 7.5 7.5s-3.358 7.5-7.5 7.5z" fill="#b1abb4"/></g><g><path d="m321.843 149.008h-22.727c-4.143 0-7.5-3.358-7.5-7.5s3.357-7.5 7.5-7.5h22.727c4.143 0 7.5 3.358 7.5 7.5s-3.357 7.5-7.5 7.5z" fill="#b1abb4"/></g></g></svg>