<?xml version="1.0" encoding="utf-8"?>
<!-- Generator: Adobe Illustrator 25.0.0, SVG Export Plug-In . SVG Version: 6.00 Build 0)  -->
<svg version="1.1" id="Capa_1" xmlns="http://www.w3.org/2000/svg" xmlns:xlink="http://www.w3.org/1999/xlink" x="0px" y="0px"
	 viewBox="0 0 100 100" style="enable-background:new 0 0 100 100;" xml:space="preserve">
<style type="text/css">
	.st0{fill:url(#SVGID_1_);}
</style>
<linearGradient id="SVGID_1_" gradientUnits="userSpaceOnUse" x1="19.2949" y1="48.252" x2="92.7401" y2="48.252">
	<stop  offset="3.906250e-03" style="stop-color:#E83F71"/>
	<stop  offset="0.7646" style="stop-color:#3F529E"/>
</linearGradient>
<circle class="st0" cx="56.02" cy="48.25" r="36.72"/>
<g>
	<g>
		<path d="M59.52,36.39h-4.12v-1.72c0-2.84-2.31-5.15-5.15-5.15s-5.15,2.31-5.15,5.15v1.72H27.96v-1.72c0-2.84-2.31-5.15-5.15-5.15
			s-5.15,2.31-5.15,5.15v1.72h-4.12c-3.47,0-6.29,2.82-6.29,6.29V81.8c0,3.47,2.82,6.29,6.29,6.29h45.97c3.47,0,6.29-2.82,6.29-6.29
			V42.68C65.81,39.22,62.99,36.39,59.52,36.39z M48.54,34.68c0-0.95,0.77-1.72,1.72-1.72s1.72,0.77,1.72,1.72v6.86
			c0,0.95-0.77,1.72-1.72,1.72s-1.72-0.77-1.72-1.72V34.68z M21.1,34.68c0-0.95,0.77-1.72,1.72-1.72s1.72,0.77,1.72,1.72v6.86
			c0,0.95-0.77,1.72-1.72,1.72s-1.72-0.77-1.72-1.72V34.68z M10.69,42.68c0-1.58,1.28-2.86,2.86-2.86h4.12v1.72
			c0,2.84,2.31,5.15,5.15,5.15s5.15-2.31,5.15-5.15v-1.72h17.15v1.72c0,2.84,2.31,5.15,5.15,5.15s5.15-2.31,5.15-5.15v-1.72h4.12
			c1.58,0,2.86,1.28,2.86,2.86v7.66H10.69V42.68z M62.38,81.8c0,1.58-1.28,2.86-2.86,2.86H13.55c-1.58,0-2.86-1.28-2.86-2.86V53.78
			h51.69V81.8z"/>
		<path d="M42.34,60.64h2.68v18.87c0,0.95,0.77,1.72,1.72,1.72s1.72-0.77,1.72-1.72V58.92c0-0.95-0.77-1.72-1.72-1.72h-4.4
			c-0.95,0-1.72,0.77-1.72,1.72C40.63,59.87,41.39,60.64,42.34,60.64z"/>
		<path d="M31.48,77.79c-1.7,0-3.16-1.27-3.4-2.95c-0.02-0.16-0.03-0.32-0.03-0.48c0-0.95-0.77-1.72-1.72-1.72
			c-0.95,0-1.72,0.77-1.72,1.72c0,0.32,0.02,0.64,0.07,0.95c0.47,3.37,3.39,5.91,6.8,5.91c3.78,0,6.86-3.08,6.86-6.86
			c0-2.05-0.9-3.89-2.33-5.15c1.43-1.26,2.33-3.1,2.33-5.15c0-3.78-3.08-6.86-6.86-6.86c-3.27,0-6.1,2.33-6.73,5.53
			c-0.18,0.93,0.42,1.83,1.35,2.01c0.93,0.18,1.83-0.42,2.01-1.35c0.31-1.6,1.73-2.76,3.37-2.76c1.89,0,3.43,1.54,3.43,3.43
			s-1.54,3.43-3.43,3.43c-0.95,0-1.72,0.77-1.72,1.72s0.77,1.72,1.72,1.72c1.89,0,3.43,1.54,3.43,3.43S33.37,77.79,31.48,77.79
			L31.48,77.79z"/>
	</g>
</g>
</svg>
