<?xml version="1.0" encoding="utf-8"?>
<!-- Generator: Adobe Illustrator 25.0.0, SVG Export Plug-In . SVG Version: 6.00 Build 0)  -->
<svg version="1.1" id="Capa_1" xmlns="http://www.w3.org/2000/svg" xmlns:xlink="http://www.w3.org/1999/xlink" x="0px" y="0px"
	 viewBox="0 0 100 100" style="enable-background:new 0 0 100 100;" xml:space="preserve">
<style type="text/css">
	.st0{fill:url(#SVGID_1_);}
	.st1{fill:#020203;}
</style>
<linearGradient id="SVGID_1_" gradientUnits="userSpaceOnUse" x1="-0.1174" y1="42.8735" x2="49.497" y2="42.8735" gradientTransform="matrix(0.7071 0.7071 -0.7071 0.7071 52.622 -6.734)">
	<stop  offset="3.906250e-03" style="stop-color:#E94071"/>
	<stop  offset="0.7646" style="stop-color:#3F52A0"/>
</linearGradient>
<polygon class="st0" points="39.76,76.12 4.68,41.04 39.76,5.96 74.85,41.04 "/>
<g>
	<g>
		<circle class="st1" cx="57.14" cy="62.27" r="1.24"/>
		<path class="st1" d="M35.31,37.47v4.96c0,0.68,0.56,1.24,1.24,1.24h35.84c0.68,0,1.24-0.56,1.24-1.24v-4.96
			c0-0.68-0.56-1.24-1.24-1.24H36.55C35.87,36.23,35.31,36.78,35.31,37.47z M48.46,38.71h22.69v2.48H48.46V38.71z M37.79,38.71h8.18
			v2.48h-8.18V38.71z"/>
		<path class="st1" d="M36.55,48.63h35.84c0.68,0,1.24-0.56,1.24-1.24s-0.56-1.24-1.24-1.24H36.55c-0.68,0-1.24,0.56-1.24,1.24
			S35.87,48.63,36.55,48.63z"/>
		<path class="st1" d="M36.55,53.59h35.84c0.68,0,1.24-0.56,1.24-1.24s-0.56-1.24-1.24-1.24H36.55c-0.68,0-1.24,0.56-1.24,1.24
			C35.31,53.03,35.87,53.59,36.55,53.59z"/>
		<path class="st1" d="M36.55,58.55h20.58c0.68,0,1.24-0.56,1.24-1.24c0-0.68-0.56-1.24-1.24-1.24H36.55
			c-0.68,0-1.24,0.56-1.24,1.24C35.31,57.99,35.87,58.55,36.55,58.55z"/>
		<path class="st1" d="M36.55,63.51h15.62c0.68,0,1.24-0.56,1.24-1.24s-0.56-1.24-1.24-1.24H36.55c-0.68,0-1.24,0.56-1.24,1.24
			S35.87,63.51,36.55,63.51z"/>
		<path class="st1" d="M47.22,73.43h6.32c0.58,2.83,3.08,4.96,6.08,4.96c3.42,0,6.2-2.78,6.2-6.2s-2.78-6.2-6.2-6.2
			c-2.99,0-5.5,2.13-6.08,4.96h-6.32c-0.68,0-1.24,0.56-1.24,1.24S46.53,73.43,47.22,73.43z M59.62,70.95h-3.51
			c0.51-1.44,1.89-2.48,3.51-2.48c2.05,0,3.72,1.67,3.72,3.72s-1.67,3.72-3.72,3.72c-1.62,0-2.99-1.04-3.51-2.48h3.51
			c0.68,0,1.24-0.56,1.24-1.24S60.3,70.95,59.62,70.95z"/>
		<path class="st1" d="M72.39,30.52c0.68,0,1.24-0.56,1.24-1.24s-0.56-1.24-1.24-1.24h-2.48c-0.68,0-1.24,0.56-1.24,1.24
			s0.56,1.24,1.24,1.24H72.39z"/>
		<path class="st1" d="M64.95,30.52c0.68,0,1.24-0.56,1.24-1.24s-0.56-1.24-1.24-1.24h-2.48c-0.68,0-1.24,0.56-1.24,1.24
			s0.56,1.24,1.24,1.24H64.95z"/>
		<path class="st1" d="M57.51,30.52c0.68,0,1.24-0.56,1.24-1.24s-0.56-1.24-1.24-1.24h-2.48c-0.68,0-1.24,0.56-1.24,1.24
			s0.56,1.24,1.24,1.24H57.51z"/>
		<circle class="st1" cx="54.66" cy="82.85" r="1.24"/>
		<path class="st1" d="M31.59,84.09h17.48c0.68,0,1.24-0.56,1.24-1.24s-0.56-1.24-1.24-1.24H32.83V33h8.68
			c0.68,0,1.24-0.56,1.24-1.24v-8.68h33.36v35.05c-0.56,0.67-1.09,1.25-1.54,1.72l-2.63-2.63c-2.42-2.42-6.35-2.43-8.77,0
			l-1.75,1.75c-0.48,0.48-0.48,1.27,0,1.75l14.69,14.69v6.19H60.24c-0.68,0-1.24,0.56-1.24,1.24c0,0.68,0.56,1.24,1.24,1.24h17.11
			c0.68,0,1.24-0.56,1.24-1.24V77.9l0.36,0.36c0.48,0.48,1.27,0.48,1.75,0l1.75-1.75c2.42-2.42,2.42-6.35,0-8.77l-2.63-2.63
			c2.35-2.29,7.53-6.1,10.24-7.28c3.82-1.66,5.19-6.85,1.94-10.1c-3.23-3.23-8.4-1.92-10.09,1.91c-0.63,1.43-1.95,3.45-3.34,5.34
			V21.85c0-0.68-0.56-1.24-1.24-1.24H41.51c-0.34,0-0.66,0.14-0.88,0.36l-9.92,9.92c-0.22,0.22-0.36,0.54-0.36,0.88v51.09
			C30.35,83.54,30.91,84.09,31.59,84.09L31.59,84.09z M80.71,69.5c1.45,1.45,1.45,3.81,0,5.26l-0.88,0.88L64.05,59.85l0.88-0.88
			c1.45-1.45,3.81-1.45,5.26,0L80.71,69.5z M78.32,59.35c2.15-2.59,4.8-6.29,5.87-8.72c0.96-2.18,4.03-3.2,6.07-1.16
			c2.04,2.04,1,5.13-1.17,6.08c-3.09,1.34-8.46,5.31-11.01,7.8l-1.76-1.76C76.91,61,77.6,60.23,78.32,59.35L78.32,59.35z
			 M40.27,24.84v5.69h-5.69L40.27,24.84z"/>
	</g>
</g>
</svg>
