<svg id="filled_outline" height="512" viewBox="0 0 512 512" width="512" xmlns="http://www.w3.org/2000/svg" data-name="filled outline"><path d="m384 32a8 8 0 0 0 -8-8h-344a8 8 0 0 0 -8 8v380.68629a8 8 0 0 0 2.34314 5.65686l64.97056 64.97056a16 16 0 0 0 11.31371 4.68629h273.37259a8 8 0 0 0 8-8z" fill="#2b93cb"/><path d="m336 488h-56a8 8 0 0 1 -8-8v-68.68629a8 8 0 0 1 2.34315-5.65686l19.3137-19.3137a8 8 0 0 1 5.65686-2.34315h36.68629z" fill="#ffeeba"/><path d="m336 384h120v104h-120z" fill="#c77708"/><path d="m320 144v32a8 8 0 0 1 -8 8h-112v-40z" fill="#5ab9e6"/><path d="m200 144v-40h112a8 8 0 0 1 8 8v32z" fill="#216ead"/><path d="m88 416h-63.22266a7.95929 7.95929 0 0 0 1.56592 2.34326l64.97022 64.97022a15.9655 15.9655 0 0 0 4.68652 3.19922v-62.5127a7.99977 7.99977 0 0 0 -8-8z" fill="#5ab9e6"/><path d="m88 104h112a0 0 0 0 1 0 0v80a0 0 0 0 1 0 0h-112a8 8 0 0 1 -8-8v-64a8 8 0 0 1 8-8z" fill="#195185"/><path d="m488 424-32 64-32-64z" fill="#f2cb6f"/><path d="m424 120h64v32h-64z" fill="#f2cb6f" transform="matrix(-1 0 0 -1 912 272)"/><path d="m440 80h48v40h-64v-24z" fill="#ffeeba"/><path d="m424 152h32v272h-32z" fill="#eeba2b"/><path d="m456 152h32v272h-32z" fill="#c77708"/><path d="m88 192h224a16.02085 16.02085 0 0 0 16-16v-64a16.02085 16.02085 0 0 0 -16-16h-224a16.02085 16.02085 0 0 0 -16 16v64a16.02085 16.02085 0 0 0 16 16zm120-16v-24h104.00977l.00585 24zm104-64 .00586 24h-104.00586v-24zm-224 0h104v64h-104z"/><path d="m120 232h40v16h-40z"/><circle cx="72" cy="280" r="8"/><circle cx="104" cy="280" r="8"/><circle cx="136" cy="280" r="8"/><circle cx="168" cy="280" r="8"/><circle cx="72" cy="312" r="8"/><circle cx="104" cy="312" r="8"/><circle cx="136" cy="312" r="8"/><circle cx="168" cy="312" r="8"/><circle cx="72" cy="344" r="8"/><circle cx="104" cy="344" r="8"/><circle cx="136" cy="344" r="8"/><circle cx="168" cy="344" r="8"/><path d="m80 232h24v16h-24z"/><path d="m280 232h40v16h-40z"/><circle cx="232" cy="280" r="8"/><circle cx="264" cy="280" r="8"/><circle cx="296" cy="280" r="8"/><circle cx="328" cy="280" r="8"/><circle cx="232" cy="312" r="8"/><circle cx="264" cy="312" r="8"/><circle cx="296" cy="312" r="8"/><circle cx="328" cy="312" r="8"/><circle cx="232" cy="344" r="8"/><circle cx="264" cy="344" r="8"/><circle cx="264" cy="376" r="8"/><circle cx="296" cy="344" r="8"/><circle cx="328" cy="344" r="8"/><circle cx="136" cy="376" r="8"/><circle cx="104" cy="376" r="8"/><circle cx="72" cy="376" r="8"/><circle cx="168" cy="376" r="8"/><circle cx="232" cy="376" r="8"/><circle cx="136" cy="408" r="8"/><circle cx="168" cy="408" r="8"/><circle cx="232" cy="408" r="8"/><circle cx="136" cy="440" r="8"/><circle cx="168" cy="440" r="8"/><circle cx="232" cy="440" r="8"/><path d="m240 232h24v16h-24z"/><path d="m224 56h48v16h-48z"/><path d="m168 56h40v16h-40z"/><path d="m128 56h24v16h-24z"/><path d="m488 72h-48a7.9942 7.9942 0 0 0 -5.65625 2.34375l-16 16a7.9942 7.9942 0 0 0 -2.34375 5.65625v280h-24v-344a16.02085 16.02085 0 0 0 -16-16h-344a16.02085 16.02085 0 0 0 -16 16v380.6875a16.11511 16.11511 0 0 0 4.6875 11.3125l64.96875 64.96875a23.85222 23.85222 0 0 0 16.96875 7.03125h353.375a8.0032 8.0032 0 0 0 7.15625-4.42188l32-64-.07178-.03613a7.82828 7.82828 0 0 0 .91553-3.54199v-344a7.99539 7.99539 0 0 0 -8-8zm-8 344h-16v-256h16zm0-272h-48v-16h48zm-48 16h16v256h-16zm0-60.6875 11.3125-11.3125h36.6875v24h-48zm-15.084 328.2295-.07227.03613 26.21096 52.42187h-99.05469v-88h72v32a7.82856 7.82856 0 0 0 .916 3.542zm-40.916-395.542v344h-80a7.9942 7.9942 0 0 0 -5.65625 2.34375l-24 24a7.9942 7.9942 0 0 0 -2.34375 5.65625v72h-160v-56a16.02085 16.02085 0 0 0 -16-16h-56v-376zm-332.6875 392h44.6875v44.6875zm236.6875 56v-68.6875l19.3125-19.3125h28.6875v88zm176-9.89062-19.05469-38.10938h38.10938z"/></svg>