<svg height="512" viewBox="0 0 512 512" width="512" xmlns="http://www.w3.org/2000/svg"><path d="m288 160h16v16h-16z" fill="#feb784"/><path d="m432 160h16v16h-16z" fill="#feb784"/><path d="m280 120h24v16h-24z" fill="#f98500"/><path d="m488 496v-168a48 48 0 0 0 -48-48h-40v-56h-64v56h-53.821a48 48 0 0 0 -45.359 32.3l-19.22 55.522-41.6 120.178h56l23.36-58.4 15.282-38.24 9.358-23.36h16c-19.145 22.724-20.481 56.443-.688 80l.688 48" fill="#fec9a3"/><path d="m400 248.427v-32.427h-64v32.427a71.4 71.4 0 0 0 64 0z" fill="#feb784"/><path d="m488 384h-38.29a61.982 61.982 0 0 1 -9.71 64v48h-144l-.3-20.6-.39-27.4c-19.79-23.56-18.46-57.28.69-80h-16l-9.36 23.36-53.04-23.54 19.22-55.52a48 48 0 0 1 45.36-32.3h29.82l5.01 17.54a53.031 53.031 0 0 0 101.98 0l5.01-17.54h16a48.024 48.024 0 0 1 48 48z" fill="#7eb457"/><circle cx="452" cy="60" fill="#f27900" r="36"/><path d="m288 128h8a0 0 0 0 1 0 0v48a0 0 0 0 1 0 0h-8a24 24 0 0 1 -24-24 24 24 0 0 1 24-24z" fill="#feb784"/><path d="m440 112v56a72 72 0 0 1 -66.49 71.79c-1.82.14-3.66.21-5.51.21a72.006 72.006 0 0 1 -72-72v-56a64 64 0 0 1 64-64h16a64 64 0 0 1 64 64z" fill="#fec9a3"/><path d="m368 200a24.027 24.027 0 0 1 -24-24h16a8 8 0 0 0 16 0h16a24.026 24.026 0 0 1 -24 24z" fill="#f7a468"/><path d="m440 112v56a72 72 0 0 1 -66.49 71.79 71.838 71.838 0 0 0 26.49-55.79v-80a71.775 71.775 0 0 0 -21.09-50.91 70.093 70.093 0 0 0 -5.66-5.09h2.75a64 64 0 0 1 64 64z" fill="#fec093"/><circle cx="404.497" cy="140" fill="#7a432a" r="12"/><circle cx="332.497" cy="140" fill="#7a432a" r="12"/><path d="m456 104v32l-16-8-32-64s-8.57 6.85-21.77 16.07c-27.16 18.96-73.94 47.93-106.23 47.93v-24a80.039 80.039 0 0 1 57.41-76.76h.01a79.774 79.774 0 0 1 22.58-3.24h16a80 80 0 0 1 80 80z" fill="#f98500"/><path d="m488 384h-38.29a61.982 61.982 0 0 1 -9.71 64v48h-144l-.3-20.6c64.72-26.07 138.95-78.25 176.8-182.71a47.825 47.825 0 0 1 15.5 35.31z" fill="#77ad50"/><path d="m296 256v144a24.006 24.006 0 0 1 -24 24h-224a24.006 24.006 0 0 1 -24-24v-144a24.006 24.006 0 0 1 24-24h224a23.37 23.37 0 0 1 4.91.51 24 24 0 0 1 19.09 23.49z" fill="#e0e0de"/><path d="m296 256v144a24.006 24.006 0 0 1 -24 24h-214c72.42-41.18 154.65-100.65 218.91-191.49a24 24 0 0 1 19.09 23.49z" fill="#d6d6d4"/><path d="m128 456h96v32h-96z" fill="#d6d6d4"/><path d="m176 488h-80l32-128h64z" fill="#e0e0de"/><g fill="#c7c7c5"><path d="m48 256h32v16h-32z"/><path d="m96 256h32v16h-32z"/><path d="m144 256h32v16h-32z"/><path d="m192 256h32v16h-32z"/><path d="m240 256h32v16h-32z"/></g><path d="m352 496h-80a40 40 0 0 1 40-40 40 40 0 0 1 40 40z" fill="#e0e0de"/><path d="m456 104v32l-16-8-32-64s-8.57 6.85-21.77 16.07a72.142 72.142 0 0 0 -48.81-52.83 79.774 79.774 0 0 1 22.58-3.24h16a80 80 0 0 1 80 80z" fill="#f27900"/><path d="m440 128h8a24 24 0 0 1 24 24 24 24 0 0 1 -24 24h-8a0 0 0 0 1 0 0v-48a0 0 0 0 1 0 0z" fill="#feb784"/></svg>