<?xml version="1.0" encoding="utf-8"?>
<!-- Generator: Adobe Illustrator 25.0.0, SVG Export Plug-In . SVG Version: 6.00 Build 0)  -->
<svg version="1.1" id="Capa_1" xmlns="http://www.w3.org/2000/svg" xmlns:xlink="http://www.w3.org/1999/xlink" x="0px" y="0px"
	 viewBox="0 0 200 200" style="enable-background:new 0 0 200 200;" xml:space="preserve">
<style type="text/css">
	.st0{fill:url(#SVGID_1_);}
	.st1{fill:#020203;}
	.st2{fill:#4EC2EB;}
	.st3{fill:#7084C1;}
</style>
<g>
	<linearGradient id="SVGID_1_" gradientUnits="userSpaceOnUse" x1="79.9785" y1="114.7409" x2="196.8849" y2="114.7409">
		<stop  offset="0" style="stop-color:#4EC2EB"/>
		<stop  offset="1" style="stop-color:#7084C1"/>
	</linearGradient>
	<rect x="79.98" y="56.29" class="st0" width="116.91" height="116.91"/>
	<g>
		<g>
			<g>
				<path class="st1" d="M166.93,78.55c3.14-3.06,4.25-7.56,2.9-11.74c-1.36-4.18-4.9-7.16-9.24-7.79l-37.99-5.52
					c-0.75-0.11-1.39-0.58-1.72-1.25l-16.99-34.42c-1.94-3.94-5.88-6.38-10.27-6.38s-8.32,2.45-10.27,6.38L66.35,52.25
					c-0.33,0.68-0.98,1.14-1.72,1.25l-37.99,5.52c-4.34,0.63-7.89,3.62-9.24,7.79s-0.25,8.67,2.9,11.74l27.49,26.8
					c0.54,0.53,0.79,1.28,0.66,2.03l-6.49,37.84c-0.74,4.33,1,8.62,4.55,11.2c3.55,2.58,8.17,2.91,12.06,0.87l33.98-17.86
					c0.67-0.35,1.46-0.35,2.13,0l33.98,17.86c1.69,0.89,3.52,1.33,5.34,1.33c2.36,0,4.71-0.74,6.72-2.2
					c3.55-2.58,5.3-6.87,4.55-11.2l-6.49-37.84c-0.13-0.74,0.12-1.5,0.66-2.03L166.93,78.55z M129.75,108.92l6.49,37.84
					c0.22,1.27-0.56,1.99-0.91,2.24c-0.35,0.25-1.28,0.77-2.41,0.17l-33.98-17.86c-1.67-0.88-3.5-1.32-5.33-1.32
					c-1.83,0-3.66,0.44-5.33,1.32L54.3,149.17c-1.14,0.6-2.07,0.08-2.41-0.17c-0.35-0.25-1.13-0.97-0.91-2.24l6.49-37.84
					c0.64-3.71-0.59-7.5-3.29-10.13l-27.49-26.8c-0.92-0.9-0.71-1.94-0.58-2.35c0.13-0.41,0.58-1.37,1.85-1.56l37.99-5.52
					c3.73-0.54,6.95-2.88,8.62-6.26l16.99-34.43c0.57-1.15,1.63-1.28,2.05-1.28c0.43,0,1.48,0.12,2.05,1.28v0l16.99,34.43
					c1.67,3.38,4.89,5.72,8.62,6.26l37.99,5.52c1.27,0.18,1.72,1.15,1.85,1.56c0.13,0.41,0.34,1.45-0.58,2.35l-27.49,26.8
					C130.34,101.42,129.11,105.21,129.75,108.92z"/>
			</g>
		</g>
		<g>
			<g>
				<path class="st1" d="M147.11,17.82c-2.05-1.49-4.91-1.03-6.4,1.01l-4.86,6.69c-1.49,2.05-1.03,4.91,1.01,6.4
					c0.81,0.59,1.76,0.87,2.69,0.87c1.42,0,2.81-0.65,3.71-1.89l4.86-6.69C149.61,22.17,149.16,19.3,147.11,17.82z"/>
			</g>
		</g>
		<g>
			<g>
				<path class="st1" d="M51.34,25.5l-4.86-6.69c-1.49-2.05-4.35-2.5-6.4-1.01c-2.05,1.49-2.5,4.35-1.01,6.4l4.86,6.69
					c0.9,1.23,2.29,1.89,3.71,1.89c0.93,0,1.88-0.28,2.69-0.88C52.37,30.41,52.83,27.54,51.34,25.5z"/>
			</g>
		</g>
		<g>
			<g>
				<path class="st1" d="M23.6,114.19c-0.78-2.41-3.37-3.72-5.77-2.94l-7.87,2.56c-2.41,0.78-3.72,3.37-2.94,5.77
					c0.63,1.94,2.42,3.17,4.35,3.17c0.47,0,0.95-0.07,1.42-0.23l7.87-2.56C23.06,119.18,24.38,116.6,23.6,114.19z"/>
			</g>
		</g>
		<g>
			<g>
				<path class="st1" d="M93.61,165.05c-2.53,0-4.58,2.05-4.58,4.58v8.27c0,2.53,2.05,4.58,4.58,4.58c2.53,0,4.58-2.05,4.58-4.58
					v-8.27C98.19,167.1,96.14,165.05,93.61,165.05z"/>
			</g>
		</g>
		<g>
			<g>
				<path class="st1" d="M177.25,113.82l-7.87-2.56c-2.4-0.78-4.99,0.53-5.77,2.94c-0.78,2.41,0.53,4.99,2.94,5.77l7.87,2.56
					c0.47,0.15,0.95,0.23,1.42,0.23c1.93,0,3.73-1.23,4.36-3.17C180.98,117.18,179.66,114.6,177.25,113.82z"/>
			</g>
		</g>
		<g>
		</g>
		<g>
		</g>
		<g>
		</g>
		<g>
		</g>
		<g>
		</g>
		<g>
		</g>
		<g>
		</g>
		<g>
		</g>
		<g>
		</g>
		<g>
		</g>
		<g>
		</g>
		<g>
		</g>
		<g>
		</g>
		<g>
		</g>
		<g>
		</g>
	</g>
</g>
<rect x="-62.83" y="19.87" class="st2" width="19.02" height="19.02"/>
<rect x="-62.83" y="45.09" class="st3" width="25" height="25"/>
</svg>
