<?xml version="1.0" encoding="utf-8"?>
<!-- Generator: Adobe Illustrator 25.0.0, SVG Export Plug-In . SVG Version: 6.00 Build 0)  -->
<svg version="1.1" id="Capa_1" xmlns="http://www.w3.org/2000/svg" xmlns:xlink="http://www.w3.org/1999/xlink" x="0px" y="0px"
	 viewBox="0 0 100 100" style="enable-background:new 0 0 100 100;" xml:space="preserve">
<style type="text/css">
	.st0{fill:url(#SVGID_1_);}
	.st1{fill:#020203;}
</style>
<linearGradient id="SVGID_1_" gradientUnits="userSpaceOnUse" x1="17.5373" y1="34.2741" x2="81.0659" y2="34.2741" gradientTransform="matrix(6.123234e-17 1 -1 6.123234e-17 97.5221 3.0613)">
	<stop  offset="3.906250e-03" style="stop-color:#E94071"/>
	<stop  offset="0.7646" style="stop-color:#3F52A0"/>
</linearGradient>
<polygon class="st0" points="31.48,84.13 31.48,20.6 95.01,20.6 95.01,84.13 "/>
<g>
	<g id="operating_system_1_">
		<path class="st1" d="M69.42,20.26h-0.26c0.99-1.91,1.5-4.03,1.49-6.17c0-7.5-6.09-13.58-13.59-13.58
			c-6.23,0-11.66,4.24-13.17,10.28c-4.2-3.98-10.83-3.81-14.82,0.39c-1.85,1.95-2.88,4.54-2.88,7.23c0.02,0.66,0.19,1.31,0.49,1.89
			c-0.18,0.02-0.35,0.05-0.52,0.1c-2.16-1.78-6.74-2.61-11.09-2.61c-5.95,0-12.35,1.54-12.35,4.94v22.23c0,3.4,6.4,4.94,12.35,4.94
			s12.35-1.54,12.35-4.94v-9.88h41.98c4.09,0,7.41-3.32,7.41-7.41S73.51,20.26,69.42,20.26z M24.97,44.95c0,0.63-3.4,2.47-9.88,2.47
			s-9.88-1.84-9.88-2.47v-4.3c3.12,1.32,6.49,1.94,9.88,1.83c3.39,0.12,6.76-0.51,9.88-1.83V44.95z M24.97,37.55
			c0,0.63-3.4,2.47-9.88,2.47s-9.88-1.84-9.88-2.47v-4.3c3.12,1.32,6.49,1.94,9.88,1.83c3.39,0.12,6.76-0.51,9.88-1.83V37.55z
			 M24.97,30.14c0,0.63-3.4,2.47-9.88,2.47s-9.88-1.84-9.88-2.47v-4.3c3.12,1.32,6.49,1.94,9.88,1.83c3.39,0.12,6.76-0.51,9.88-1.83
			V30.14z M15.09,25.2c-6.48,0-9.88-1.84-9.88-2.47s3.4-2.47,9.88-2.47s9.88,1.84,9.88,2.47S21.57,25.2,15.09,25.2z M69.42,32.61
			H27.44v-9.88h1.23c0.4,0,0.78-0.19,1.01-0.52c0.23-0.33,0.28-0.76,0.15-1.14c-0.16-0.42-0.35-0.83-0.58-1.22
			c-0.29-0.44-0.49-0.93-0.58-1.44c-0.01-4.43,3.58-8.02,8.01-8.03c2.89,0,5.56,1.55,6.99,4.06c0.34,0.59,1.09,0.8,1.68,0.47
			c0.38-0.22,0.62-0.62,0.63-1.06c0.11-6.14,5.18-11.02,11.32-10.91c6.14,0.11,11.02,5.18,10.91,11.32
			c-0.04,2.35-0.83,4.62-2.24,6.49c-0.41,0.55-0.3,1.32,0.25,1.73c0.21,0.16,0.47,0.25,0.74,0.25h2.48c2.73,0,4.94,2.21,4.94,4.94
			S72.15,32.61,69.42,32.61L69.42,32.61z"/>
		<path class="st1" d="M77.62,67.62c-0.23-0.28-0.57-0.44-0.94-0.44H75.6V41.25c-0.01-2.04-1.66-3.7-3.7-3.7H32.38
			c-2.04,0.01-3.7,1.66-3.7,3.7v25.93h-1.09c-0.68,0-1.23,0.56-1.23,1.24c0,0.07,0.01,0.14,0.02,0.2l0.57,3.16
			c0,0.05,0.01,0.09,0.02,0.14c0.47,1.58,1.91,2.66,3.56,2.67h43.22c1.64-0.01,3.09-1.09,3.56-2.67c0.02-0.04,0.02-0.09,0.02-0.14
			l0.57-3.16C77.96,68.27,77.86,67.9,77.62,67.62L77.62,67.62z M31.14,41.25c0-0.68,0.55-1.23,1.23-1.23h39.51
			c0.68,0,1.23,0.55,1.23,1.23v25.93H55.84c-0.68,0-1.23,0.55-1.23,1.23h-4.94c0-0.68-0.55-1.23-1.23-1.23H31.14V41.25z
			 M74.92,71.28c-0.17,0.5-0.64,0.84-1.17,0.84H30.53c-0.53,0-1-0.34-1.17-0.84l-0.28-1.63H47.2c0,0.68,0.55,1.23,1.23,1.23h7.41
			c0.68,0,1.23-0.55,1.23-1.23H75.2L74.92,71.28z"/>
		<path class="st1" d="M13.86,52.36h2.47v2.47h-2.47V52.36z"/>
		<path class="st1" d="M16.33,57.3h-2.47v13.58c0,0.68,0.55,1.23,1.23,1.23h8.64v-2.47h-7.41V57.3z"/>
		<path class="st1" d="M57.07,53.6c0-2.73-2.21-4.94-4.94-4.94c-2.73,0-4.94,2.21-4.94,4.94c0,2.73,2.21,4.94,4.94,4.94
			C54.86,58.54,57.07,56.33,57.07,53.6z M49.67,53.6c0-1.36,1.11-2.47,2.47-2.47s2.47,1.11,2.47,2.47s-1.11,2.47-2.47,2.47
			S49.67,54.96,49.67,53.6z"/>
		<path class="st1" d="M49.67,64.71h4.94c0.57,0,1.06-0.39,1.2-0.94l0.21-0.82l0.73,0.44c0.49,0.29,1.11,0.21,1.51-0.19l3.49-3.49
			c0.4-0.4,0.48-1.02,0.19-1.51l-0.44-0.73l0.82-0.21c0.55-0.14,0.94-0.63,0.94-1.2v-4.94c0-0.57-0.39-1.06-0.94-1.2l-0.82-0.21
			l0.44-0.73c0.29-0.49,0.21-1.11-0.19-1.51l-3.49-3.49c-0.4-0.4-1.02-0.48-1.51-0.19l-0.73,0.44l-0.21-0.82
			c-0.14-0.55-0.63-0.94-1.2-0.94h-4.94c-0.57,0-1.06,0.39-1.2,0.94l-0.21,0.82l-0.73-0.44c-0.49-0.29-1.11-0.21-1.51,0.19
			l-3.49,3.49c-0.4,0.4-0.48,1.02-0.19,1.51l0.44,0.73l-0.82,0.21c-0.55,0.14-0.94,0.63-0.94,1.2v4.94c0,0.57,0.39,1.06,0.94,1.2
			l0.82,0.21l-0.44,0.73c-0.29,0.49-0.21,1.11,0.19,1.51l3.49,3.49c0.4,0.4,1.02,0.48,1.51,0.19l0.73-0.44l0.21,0.82
			C48.6,64.32,49.1,64.71,49.67,64.71z M47.09,60.77l-2.13-2.13l0.8-1.33c0.35-0.58,0.16-1.34-0.42-1.69
			c-0.1-0.06-0.22-0.11-0.34-0.14l-1.51-0.37v-3.02L45,51.72c0.66-0.17,1.06-0.84,0.9-1.5c-0.03-0.12-0.08-0.23-0.14-0.34l-0.8-1.33
			l2.13-2.13l1.33,0.8c0.58,0.35,1.34,0.16,1.69-0.42c0.06-0.1,0.11-0.22,0.14-0.34l0.37-1.51h3.01L54,46.47
			c0.17,0.66,0.84,1.06,1.5,0.9c0.12-0.03,0.23-0.08,0.34-0.14l1.33-0.8l2.13,2.13l-0.8,1.33c-0.35,0.58-0.16,1.34,0.42,1.69
			c0.1,0.06,0.22,0.11,0.34,0.14l1.51,0.37v3.01l-1.51,0.37c-0.66,0.17-1.06,0.84-0.9,1.5c0.03,0.12,0.08,0.23,0.14,0.34l0.8,1.33
			l-2.13,2.13l-1.33-0.8c-0.34-0.2-0.75-0.23-1.11-0.08c-0.36,0.15-0.63,0.46-0.72,0.84l-0.37,1.51h-3l-0.37-1.51
			c-0.17-0.66-0.84-1.06-1.5-0.9c-0.12,0.03-0.23,0.08-0.34,0.14L47.09,60.77z"/>
		<path class="st1" d="M65.72,52.36h4.94v2.47h-4.94V52.36z"/>
		<path class="st1" d="M33.61,52.36h4.94v2.47h-4.94V52.36z"/>
		<path class="st1" d="M36.7,15.32v-2.47c-2.82,0-5.19,2.11-5.52,4.91l2.45,0.29C33.82,16.49,35.13,15.32,36.7,15.32z"/>
		<path class="st1" d="M63.25,14.08h2.47c-0.01-4.77-3.87-8.64-8.64-8.64v2.47C60.48,7.91,63.24,10.68,63.25,14.08z"/>
	</g>
</g>
</svg>
