<?xml version="1.0" encoding="utf-8"?>
<!-- Generator: Adobe Illustrator 25.0.0, SVG Export Plug-In . SVG Version: 6.00 Build 0)  -->
<svg version="1.1" id="Capa_1" xmlns="http://www.w3.org/2000/svg" xmlns:xlink="http://www.w3.org/1999/xlink" x="0px" y="0px"
	 viewBox="0 0 200 200" style="enable-background:new 0 0 200 200;" xml:space="preserve">
<style type="text/css">
	.st0{fill:url(#SVGID_1_);}
	.st1{fill:#4EC2EB;}
	.st2{fill:#7084C1;}
	.st3{fill:#020203;}
</style>
<linearGradient id="SVGID_1_" gradientUnits="userSpaceOnUse" x1="50.4592" y1="58.5177" x2="167.3656" y2="58.5177" gradientTransform="matrix(0.7071 -0.7071 0.7071 0.7071 -30.8288 142.2179)">
	<stop  offset="0" style="stop-color:#4EC2EB"/>
	<stop  offset="1" style="stop-color:#7084C1"/>
</linearGradient>
<polygon class="st0" points="170.23,106.58 87.56,189.25 4.9,106.58 87.56,23.92 "/>
<rect x="-62.83" y="19.87" class="st1" width="19.02" height="19.02"/>
<rect x="-62.83" y="45.09" class="st2" width="25" height="25"/>
<g>
	<g id="Outline_1_">
		<path class="st3" d="M162.41,96.54h-11.4V84.16c7.09-4.06,12.08-10.97,13.69-18.98h0.57c6.3,0,11.4-5.1,11.4-11.4
			c0-4.07-2.17-7.84-5.7-9.88v-7.24c0-0.19,0-0.39-0.01-0.58c8.34-2.35,13.19-11.02,10.83-19.35S170.77,3.55,162.44,5.9
			c-2.53,0.71-4.83,2.05-6.71,3.89c-4.86-2.94-10.44-4.49-16.12-4.48h-5.7c-17.31,0.02-31.34,14.05-31.36,31.36v7.24
			c-5.45,3.15-7.32,10.12-4.18,15.57c2.04,3.53,5.8,5.7,9.88,5.7h0.57c1.61,8.01,6.6,14.93,13.69,18.98v12.38h-8.55v-5.7
			c-0.01-6.3-5.11-11.4-11.4-11.4H22.71c-6.3,0.01-11.4,5.11-11.4,11.4v51.32c0.01,6.3,5.11,11.4,11.4,11.4h19.16l-4.82,19.27
			c-0.38,1.53,0.55,3.08,2.07,3.46c0.23,0.06,0.46,0.09,0.69,0.09h48.47c1.17,0,2.21-0.71,2.65-1.79l8.41-21.02h3.2
			c0.66,0,1.31-0.06,1.96-0.17c0.73,2.06,1.72,4.01,2.96,5.8c-4.84,3.15-7.77,8.54-7.77,14.32c0,1.57,1.28,2.85,2.85,2.85h28.51
			c1.57,0,2.85-1.28,2.85-2.85c0.01-9.44-7.64-17.1-17.08-17.11c-1.34,0-2.68,0.16-3.98,0.47c-1.38-1.75-2.44-3.73-3.13-5.85
			c2.69-2.16,4.25-5.42,4.24-8.87v-39.92h0.7l1.2,4.18c2.67,9.33,11.2,15.77,20.9,15.78c9.7-0.03,18.22-6.46,20.9-15.78l1.2-4.18
			h3.56c7.87,0.01,14.25,6.39,14.26,14.26v17.11h-10.81c-1.57,0-2.85,1.28-2.85,2.85c0,0.38,0.08,0.75,0.22,1.1
			c2.82,6.66,1.66,14.34-3,19.87c-0.43,0.51-0.67,1.16-0.67,1.83v17.11h5.7v-16.1c4.6-5.95,6.26-13.65,4.52-20.96h6.89v37.06h5.7
			V116.5C182.36,105.48,173.43,96.56,162.41,96.54z M127.84,170.67h-22.09c1.57-6.1,7.79-9.77,13.89-8.2
			C123.66,163.51,126.8,166.65,127.84,170.67z M43.47,170.67l9.98-39.92H70.8l-4.99,39.92H43.47z M71.56,170.67l0.71-5.7h10.31v5.7
			H71.56z M88.28,165.85v-3.73c0-1.57-1.28-2.85-2.85-2.85h-9.16l1.98-5.7H93.2L88.28,165.85z M74.41,147.86l2.45-19.6
			c0.2-1.56-0.91-2.99-2.48-3.18c-0.12-0.01-0.24-0.02-0.35-0.02H51.22c-1.31,0-2.45,0.89-2.77,2.16l-5.16,20.65H22.71
			c-3.15,0-5.7-2.55-5.7-5.7V90.84c0-3.15,2.55-5.7,5.7-5.7h79.83c3.15,0,5.7,2.55,5.7,5.7v51.32c0,3.14-2.54,5.7-5.69,5.7
			c-0.01,0-0.01,0-0.02,0H74.41z M165.26,59.48v-11.4c3.15,0,5.7,2.55,5.7,5.7C170.96,56.93,168.41,59.48,165.26,59.48z
			 M166.69,11.01c5.51,0,9.98,4.48,9.98,9.99c0,4.11-2.52,7.8-6.35,9.29c-1.37-6.61-4.85-12.6-9.91-17.08
			C162.18,11.78,164.4,10.99,166.69,11.01z M108.24,36.67c0.02-14.16,11.49-25.64,25.66-25.66h5.7c5.38-0.02,10.63,1.68,14.98,4.85
			l0,0c0,0,0.01,0.01,0.01,0.01c5.95,4.27,9.79,10.89,10.54,18.18c0.09,0.95,0.13,1.83,0.13,2.63v5.7h-1.09l-10.62-21.24
			c-0.7-1.41-2.42-1.98-3.82-1.28c-0.18,0.09-0.35,0.2-0.51,0.32c-0.01,0.01-1.42,1.14-3.76,2.87
			c-19.16,14.09-30.86,17.75-35.01,18.68c-0.77,0.18-1.5,0.31-2.22,0.42V36.67z M102.54,53.78c0-3.15,2.55-5.7,5.7-5.7v11.4
			C105.09,59.48,102.54,56.92,102.54,53.78z M113.94,59.48V46.73c12.54-3.52,27.09-13.33,34.91-19.09c0.41-0.31,0.79-0.59,1.15-0.86
			l9.56,19.11v13.58c0,12.6-10.21,22.81-22.81,22.81S113.94,72.08,113.94,59.48z M152.17,104.86c-1.98,6.88-8.26,11.62-15.42,11.64
			c-7.16-0.01-13.45-4.76-15.42-11.65l-0.75-2.6h4.77c1.57,0,2.85-1.28,2.85-2.85V86.67c5.57,1.76,11.54,1.76,17.11,0v12.72
			c0,1.57,1.28,2.85,2.85,2.85h4.77L152.17,104.86z"/>
		<path class="st3" d="M128.2,49.5c0-2.36-1.91-4.28-4.28-4.28s-4.28,1.91-4.28,4.28c0,2.36,1.91,4.28,4.28,4.28
			C126.28,53.77,128.2,51.86,128.2,49.5z"/>
		<path class="st3" d="M149.58,53.78c2.36,0,4.28-1.91,4.28-4.28c0-2.36-1.91-4.28-4.28-4.28c-2.36,0-4.28,1.91-4.28,4.28
			C145.31,51.86,147.22,53.77,149.58,53.78z"/>
		<path class="st3" d="M136.75,70.88c4.72-0.01,8.55-3.83,8.55-8.55h-5.7c0,1.57-1.28,2.85-2.85,2.85c-1.57,0-2.85-1.28-2.85-2.85
			h-5.7C128.2,67.05,132.03,70.88,136.75,70.88z"/>
		<rect x="22.71" y="90.84" class="st3" width="11.4" height="5.7"/>
		<rect x="39.82" y="90.84" class="st3" width="11.4" height="5.7"/>
		<rect x="56.92" y="90.84" class="st3" width="11.4" height="5.7"/>
		<rect x="74.03" y="90.84" class="st3" width="11.4" height="5.7"/>
		<rect x="91.13" y="90.84" class="st3" width="11.4" height="5.7"/>
	</g>
</g>
</svg>
